<?xml version="1.0" standalone="no"?>
<!DOCTYPE svg PUBLIC "-//W3C//DTD SVG 20010904//EN"
 "http://www.w3.org/TR/2001/REC-SVG-20010904/DTD/svg10.dtd">
<svg version="1.0" xmlns="http://www.w3.org/2000/svg"
 width="700.000000pt" height="700.000000pt" viewBox="0 0 700.000000 700.000000"
 preserveAspectRatio="xMidYMid meet">
<metadata>
Created by potrace 1.11, written by Peter Selinger 2001-2013
</metadata>
<g transform="translate(0.000000,700.000000) scale(0.100000,-0.100000)"
fill="#000000" stroke="none">
<path d="M5110 5542 c-106 -7 -229 -24 -305 -43 -341 -81 -742 -308 -1035
-586 l-104 -99 -56 29 c-76 38 -160 40 -234 3 l-50 -25 -76 72 c-225 217 -484
384 -795 512 -356 148 -774 162 -1154 39 -525 -170 -920 -553 -1136 -1103 -45
-115 -90 -292 -109 -426 -13 -96 -14 -400 -2 -485 3 -19 10 -64 16 -100 6 -36
13 -81 16 -100 48 -311 159 -649 301 -920 54 -103 171 -292 212 -342 6 -7 34
-42 63 -78 76 -94 203 -224 278 -283 36 -28 67 -54 70 -57 5 -7 181 -126 215
-147 65 -39 257 -129 347 -162 105 -38 105 -38 131 -19 32 23 43 74 27 122 -7
22 -56 83 -127 158 -252 269 -546 665 -640 864 -83 175 -125 353 -148 629 -2
28 -7 91 -12 140 -10 114 -10 394 -1 460 15 100 70 260 126 365 90 167 217
294 371 370 139 69 241 90 416 86 308 -9 593 -124 817 -332 55 -50 55 -51 37
-73 l-18 -22 -71 21 c-107 32 -149 52 -283 138 -181 116 -233 134 -373 133
-136 -1 -323 -101 -306 -163 2 -11 29 -38 59 -60 31 -22 99 -84 152 -137 248
-250 318 -286 596 -315 33 -4 71 -9 85 -11 14 -3 36 -7 50 -10 74 -14 74 -14
112 -93 21 -42 69 -135 107 -207 128 -238 182 -406 196 -615 13 -183 82 -347
194 -458 62 -61 241 -194 278 -207 19 -7 47 -10 61 -8 15 2 72 4 127 3 93 0
103 2 150 29 63 37 148 119 251 241 158 188 175 218 199 360 28 168 31 184 56
295 11 50 22 98 24 109 24 107 87 264 151 373 24 39 53 94 64 122 20 45 25 50
63 56 23 4 50 9 60 11 10 2 51 8 90 13 118 17 304 59 339 77 73 38 138 93 283
239 55 55 123 118 150 140 86 67 93 87 48 130 -92 87 -275 127 -415 90 -71
-18 -119 -43 -243 -125 -122 -81 -149 -96 -246 -130 l-75 -27 -17 29 c-17 29
-17 30 21 68 260 264 760 400 1090 298 230 -71 407 -224 517 -447 93 -188 126
-322 128 -520 0 -74 -10 -290 -18 -361 -2 -19 -7 -75 -11 -125 -9 -107 -8 -97
-18 -165 -4 -30 -12 -71 -16 -90 -5 -19 -11 -46 -14 -60 -9 -48 -57 -183 -88
-249 -64 -135 -235 -386 -420 -618 -90 -113 -133 -161 -263 -298 -52 -55 -84
-115 -85 -157 0 -14 12 -40 26 -57 30 -36 34 -36 175 20 206 81 385 186 559
326 346 281 623 713 775 1210 20 65 37 125 39 133 31 130 58 265 70 345 9 55
18 116 22 135 3 19 8 127 9 240 3 222 -9 327 -60 516 -88 324 -276 645 -512
874 -91 88 -204 180 -221 180 -6 0 -12 3 -14 8 -7 16 -77 58 -188 113 -166 83
-389 154 -545 174 -113 14 -251 22 -315 17z"/>
</g>
</svg>
