<svg id="bg" xmlns="http://www.w3.org/2000/svg" viewBox="0 0 500 500"><defs><style>.cls-1{fill:#75b54e;fill-rule:evenodd;}.cls-2{fill:#f2ceaa;}.cls-3{fill:#714429;}.cls-4{fill:none;stroke:#231f20;stroke-miterlimit:10;}.cls-5{fill:#41160b;}.cls-6{fill:#ffcd33;}.cls-7{fill:#7d4c2e;}</style></defs><title>mouflon-green</title><path id="bg-2" data-name="bg" class="cls-1" d="M250,0C388.07,0,500,111.93,500,250S388.07,500,250,500,0,388.07,0,250,111.93,0,250,0Z" transform="translate(0 0)"/><path class="cls-2" d="M318,209.45a86.31,86.31,0,0,1,41.84-23.51c9-2.06,29.62-6.76,50.08,4.44s27.54,30.84,30.29,38.37c5.43,14.87,4.77,27,3.64,44.43-1.52,23.37-2.81,43.12-14.54,63.41-7.9,13.67-29.65,43.35-44,57.36-2.09,2-8.85,8.45-7.27,14.14a8.86,8.86,0,0,0,4,4.85,149.26,149.26,0,0,0,34.74-15.75c62.68-38.85,75.33-112.65,77.55-125.62,3-17.48,7.09-41.35-1.21-70.68-3.43-12.13-18.26-58-65-82.4-8.63-4.51-37.7-18.41-74.32-13.33-21.37,3-37,11.2-47.66,17a171.73,171.73,0,0,0-44.21,34.24l10.33,39" transform="translate(0 0)"/><path class="cls-2" d="M219.42,139.21a173.77,173.77,0,0,0-25.64-16.66c-10.71-5.66-26.43-13.81-47.79-16.6-36.66-4.8-65.63,9.32-74.22,13.89-46.59,24.8-61.07,70.73-64.41,82.89C-0.71,232.11,3.57,256,6.7,273.41c2.32,12.95,15.53,86.65,78.5,125A149.26,149.26,0,0,0,120,413.93a8.86,8.86,0,0,0,4-4.88c1.54-5.7-5.27-12.06-7.38-14.08-14.48-13.9-36.45-43.41-44.46-57-11.88-20.21-13.32-39.95-15-63.3-1.27-17.44-2-29.55,3.3-44.46,2.69-7.55,9.75-27.31,30-38.6s40.87-6.83,50-4.82a87.08,87.08,0,0,1,43.82,24.79L233.52,198l3.74-42.66A171.83,171.83,0,0,0,219.42,139.21Z" transform="translate(0 0)"/><path class="cls-3" d="M269.49,350.44A84.3,84.3,0,0,0,278.6,341c7.71-9.27,11.57-13.91,13.07-16.52,3.61-6.27,2.45-8.17,5.95-25.24,3.08-15.05,4.92-24.1,10-34.79,3.54-7.4,4.79-7.58,8.87-16.63,4.79-10.63,7.24-16.25,6.53-23.7-0.19-2-1.07-11.27-8.07-17.81-7.7-7.19-13.9-2.73-26.14-9.61-2.65-1.49-12-6.75-17.43-17.14s-2.23-16.65-9.09-22.84a19.2,19.2,0,0,0-24.22-1.54c-8.34,6-4.08,14.15-11.15,24.6-4.07,6-11,10.17-25,18.45-6.09,3.62-11,6-16.14,11.92-2.32,2.66-5.24,6-6.92,11.15-2.88,8.83-.13,17,2.31,23.83s4.35,8.86,8.84,17.3c5,9.35,10.93,20.51,13.84,34.21,2.71,12.76,0,14.54,3.84,25.75a49.41,49.41,0,0,0,10.38,18.45c1.68,1.81,5,4.42,11.53,9.61s8.66,6.35,11.47,6.75c3.06,0.43,3.17-.58,9.05-0.48,6.2,0.11,6.48.72,9.21,0.16C260.66,356.63,263.34,355.89,269.49,350.44Z" transform="translate(0 0)"/><path class="cls-4" d="M277,304.57c0.16-4.61.53-11,1.48-18.71,1-7.94,1.53-12.25,3.27-17.52a58.38,58.38,0,0,1,10.39-18.71" transform="translate(0 0)"/><path class="cls-4" d="M222.87,304.57c-0.16-4.61-.53-11-1.48-18.71-1-7.94-1.53-12.25-3.27-17.52a58.38,58.38,0,0,0-10.39-18.71" transform="translate(0 0)"/><path class="cls-5" d="M266.46,309.45c0.81,0.89-3.15,5.49-12.32,18.12-1.55,2.14-2.82,3.91-3.69,5.13-0.7-1.25-1.75-3-3.13-5.13-7.2-10.87-14.63-16.38-13.92-17.34s7.64,6.28,17,5.93C259.59,315.81,265.45,308.33,266.46,309.45Z" transform="translate(0 0)"/><path class="cls-6" d="M301,244.18c-0.09-.52.07-1.18,4.79-5.53,3.08-2.83,3.62-3.11,4.24-3.32a9.08,9.08,0,0,1,6.35.46,5.1,5.1,0,0,1,2.39,1.57c2.41,3.55-3.79,13.59-8.29,13.17-1-.09-1-0.61-4.33-2.76C302.34,245.33,301.17,245.27,301,244.18Z" transform="translate(0 0)"/><path class="cls-6" d="M198.92,244.18c0.09-.52-0.07-1.18-4.79-5.53-3.08-2.83-3.62-3.11-4.24-3.32a9.08,9.08,0,0,0-6.35.46,5.1,5.1,0,0,0-2.39,1.57c-2.41,3.55,3.79,13.59,8.29,13.17,1-.09,1-0.61,4.33-2.76C197.56,245.33,198.74,245.27,198.92,244.18Z" transform="translate(0 0)"/><path class="cls-7" d="M320.55,213.75a51.72,51.72,0,0,0,11-3.67,58.73,58.73,0,0,0,9.51-5.71c7.17-4.92,12.44-8.53,18.81-10.36a36.12,36.12,0,0,1,22.4,1.48c1.51,0.64,10.31,4.35,10,8.7-0.14,2.23-2.58,3.41-5.82,5.67-6.57,4.58-5.11,5.66-14.58,14.37-7.76,7.14-11.64,10.71-17.12,13.1-1.7.74-4.12,1.67-17.9,4.05-7.54,1.3-13.8,2.23-18.17,2.84" transform="translate(0 0)"/><path class="cls-7" d="M181.88,214.66a49.59,49.59,0,0,1-12.82-3.78,57.31,57.31,0,0,1-9.57-5.61c-7.22-4.85-12.52-8.41-18.91-10.17a36.12,36.12,0,0,0-22.39,1.7c-1.51.65-10.27,4.45-10,8.8,0.16,2.23,2.61,3.39,5.87,5.62,6.62,4.51,5.17,5.6,14.72,14.23,7.83,7.06,11.74,10.6,17.25,12.94,0.31,0.13.62,0.26,1,.39a61.89,61.89,0,0,0,17,3.49,133.24,133.24,0,0,1,17.1,2.76" transform="translate(0 0)"/></svg>